<svg width="300" height="244.187" viewBox="0 0 300 244.187" xmlns="http://www.w3.org/2000/svg" xmlns:xlink="http://www.w3.org/1999/xlink" id="svg3626" overflow="hidden"><defs id="defs3628"></defs><g id="layer1" transform="translate(-539.179 -568.858)"><path d="M633.898 812.045C746.359 812.045 807.854 718.877 807.854 638.089 807.854 635.442 807.801 632.808 807.682 630.185 819.62 621.555 829.996 610.786 838.18 598.526 827.225 603.395 815.436 606.673 803.069 608.151 815.692 600.582 825.383 588.608 829.955 574.334 818.142 581.337 805.059 586.427 791.131 589.174 779.974 577.29 764.09 569.858 746.502 569.858 712.738 569.858 685.358 597.238 685.358 630.99 685.358 635.788 685.894 640.455 686.943 644.931 636.128 642.374 591.069 618.045 560.918 581.051 555.667 590.086 552.639 600.582 552.639 611.781 552.639 632.993 563.433 651.719 579.847 662.674 569.816 662.364 560.393 659.61 552.156 655.027 552.147 655.284 552.147 655.534 552.147 655.808 552.147 685.417 573.222 710.14 601.199 715.742 596.061 717.143 590.655 717.894 585.077 717.894 581.143 717.894 577.311 717.507 573.586 716.791 581.369 741.084 603.94 758.762 630.701 759.257 609.775 775.659 583.414 785.427 554.764 785.427 549.835 785.427 544.965 785.147 540.179 784.581 567.238 801.925 599.369 812.045 633.901 812.045" id="path3611" fill="#101432"/></g></svg>