<svg width="512" height="512" viewBox="0 0 512.418 512.418" xmlns="http://www.w3.org/2000/svg" xmlns:xlink="http://www.w3.org/1999/xlink" id="Layer_1" overflow="hidden"><path d="M437.335 75.082C337.235-25.02 175.199-25.036 75.083 75.082-25.02 175.184-25.035 337.218 75.083 437.335 175.183 537.437 337.219 537.452 437.335 437.335 537.438 337.233 537.452 175.199 437.335 75.082ZM426.629 400.821C414.661 390.119 401.859 380.648 388.365 372.486 397.284 341.677 402.568 307.774 403.817 272.532L479.126 272.532C475.721 320.035 457.469 364.596 426.629 400.821ZM33.291 272.532 108.6 272.532C109.849 307.774 115.133 341.677 124.052 372.486 110.558 380.648 97.756 390.119 85.788 400.821 54.948 364.596 36.697 320.035 33.291 272.532ZM85.789 111.596C97.757 122.298 110.559 131.769 124.053 139.931 115.134 170.74 109.85 204.643 108.601 239.885L33.291 239.885C36.697 192.383 54.948 147.822 85.789 111.596ZM239.886 143.305C213.264 141.401 187.595 134.844 163.798 124.027 177.638 88.388 203.152 45.643 239.886 35.05ZM239.886 176.013 239.886 239.886 141.261 239.886C142.391 210.074 146.615 181.447 153.64 155.254 180.683 167.076 209.767 174.136 239.886 176.013ZM239.886 272.532 239.886 336.405C209.767 338.282 180.683 345.342 153.64 357.164 146.615 330.971 142.391 302.344 141.261 272.532ZM239.886 369.113 239.886 477.367C203.154 466.774 177.64 424.034 163.798 388.391 187.595 377.574 213.264 371.017 239.886 369.113ZM272.532 369.113C299.154 371.017 324.823 377.574 348.62 388.391 334.779 424.031 309.266 466.774 272.532 477.367ZM272.532 336.405 272.532 272.532 371.157 272.532C370.027 302.344 365.803 330.971 358.778 357.164 331.735 345.342 302.651 338.282 272.532 336.405ZM272.532 239.886 272.532 176.013C302.651 174.136 331.735 167.076 358.778 155.254 365.803 181.447 370.027 210.074 371.157 239.886ZM272.532 143.305 272.532 35.051C309.266 45.644 334.78 88.389 348.62 124.028 324.823 134.844 299.154 141.401 272.532 143.305ZM345.852 51.348C366.747 60.498 386.241 72.905 403.716 88.299 395.398 95.633 386.621 102.283 377.456 108.23 369.317 88.078 358.92 68.494 345.852 51.348ZM134.961 108.23C125.796 102.283 117.02 95.633 108.701 88.299 126.176 72.905 145.67 60.498 166.565 51.348 153.497 68.496 143.1 88.08 134.961 108.23ZM134.962 404.188C143.1 424.339 153.499 443.924 166.566 461.07 145.671 451.92 126.177 439.513 108.702 424.119 117.02 416.785 125.797 410.135 134.962 404.188ZM377.456 404.188C386.621 410.135 395.398 416.785 403.716 424.118 386.241 439.512 366.747 451.919 345.852 461.069 358.919 443.925 369.317 424.34 377.456 404.188ZM403.818 239.886C402.569 204.644 397.285 170.74 388.366 139.932 401.86 131.77 414.661 122.299 426.63 111.597 457.47 147.822 475.721 192.383 479.127 239.886Z" fill="#010045"/></svg>