<svg width="396" height="353" xmlns="http://www.w3.org/2000/svg" xmlns:xlink="http://www.w3.org/1999/xlink" overflow="hidden"><defs><clipPath id="clip0"><rect x="63" y="36" width="396" height="353"/></clipPath><clipPath id="clip1"><path d="M116.087 388.054 278.693 362.041 226.564 36.1842 63.9579 62.197Z" fill-rule="evenodd" clip-rule="evenodd"/></clipPath><clipPath id="clip2"><path d="M116.087 388.054 278.693 362.041 226.564 36.1842 63.9579 62.197Z" fill-rule="evenodd" clip-rule="evenodd"/></clipPath><clipPath id="clip3"><path d="M116.087 388.054 441.944 335.925 389.815 10.0682 63.9579 62.197Z" fill-rule="evenodd" clip-rule="evenodd"/></clipPath><clipPath id="clip4"><path d="M406.326 388.053 243.72 362.041 295.848 36.184 458.454 62.1967Z" fill-rule="evenodd" clip-rule="evenodd"/></clipPath><clipPath id="clip5"><path d="M406.326 388.053 243.72 362.041 295.848 36.184 458.454 62.1967Z" fill-rule="evenodd" clip-rule="evenodd"/></clipPath><clipPath id="clip6"><path d="M406.326 388.053 80.4685 335.925 132.597 10.068 458.454 62.1967Z" fill-rule="evenodd" clip-rule="evenodd"/></clipPath><clipPath id="clip7"><path d="M263.826 220.153 253.692 243.275 275.554 252.857 285.688 229.735Z" fill-rule="evenodd" clip-rule="evenodd"/></clipPath><clipPath id="clip8"><path d="M263.826 220.153 253.692 243.275 275.554 252.857 285.688 229.735Z" fill-rule="evenodd" clip-rule="evenodd"/></clipPath><clipPath id="clip9"><path d="M237.602 198.982 207.149 268.464 290.873 305.158 321.326 235.676Z" fill-rule="evenodd" clip-rule="evenodd"/></clipPath><clipPath id="clip10"><path d="M259.972 229.199 251.801 253.086 274.386 260.811 282.557 236.924Z" fill-rule="evenodd" clip-rule="evenodd"/></clipPath><clipPath id="clip11"><path d="M259.972 229.199 251.801 253.086 274.386 260.811 282.557 236.924Z" fill-rule="evenodd" clip-rule="evenodd"/></clipPath><clipPath id="clip12"><path d="M232.074 210.288 207.521 282.067 294.013 311.653 318.566 239.874Z" fill-rule="evenodd" clip-rule="evenodd"/></clipPath><clipPath id="clip13"><path d="M240.715 251.129 265.157 244.808 259.18 221.699 234.739 228.02Z" fill-rule="evenodd" clip-rule="evenodd"/></clipPath><clipPath id="clip14"><path d="M240.715 251.129 265.157 244.808 259.18 221.699 234.739 228.02Z" fill-rule="evenodd" clip-rule="evenodd"/></clipPath><clipPath id="clip15"><path d="M240.276 284.83 313.722 265.834 290.833 177.334 217.387 196.329Z" fill-rule="evenodd" clip-rule="evenodd"/></clipPath></defs><g clip-path="url(#clip0)" transform="translate(-63 -36)"><g clip-path="url(#clip1)"><g clip-path="url(#clip2)"><g clip-path="url(#clip3)"><path d="M323.999 209.249 173.996 96.7494C168.662 92.7494 161.329 92.7494 155.996 96.7494L6.00096 209.249C-0.625996 214.22-1.96999 223.622 3.00098 230.249 5.94796 234.179 10.4519 236.25 15.0129 236.25 18.1439 236.25 21.3029 235.272 24.0009 233.249L164.997 127.499 305.999 233.249C312.628 238.221 322.029 236.876 326.999 230.249 331.97 223.622 330.626 214.22 323.999 209.249Z" fill="#BFBFBF" transform="matrix(0.987446 -0.157966 -0.157966 -0.987445 116.087 388.054)"/></g></g></g><g clip-path="url(#clip4)"><g clip-path="url(#clip5)"><g clip-path="url(#clip6)"><path d="M323.999 209.249 173.996 96.7494C168.662 92.7494 161.329 92.7494 155.996 96.7494L6.00096 209.249C-0.625996 214.22-1.96999 223.622 3.00098 230.249 5.94796 234.179 10.4519 236.25 15.0129 236.25 18.1439 236.25 21.3029 235.272 24.0009 233.249L164.997 127.499 305.999 233.249C312.628 238.221 322.029 236.876 326.999 230.249 331.97 223.622 330.626 214.22 323.999 209.249Z" fill="#BFBFBF" transform="matrix(-0.987446 -0.157966 0.157966 -0.987445 406.326 388.053)"/></g></g></g><g clip-path="url(#clip7)"><g clip-path="url(#clip8)"><g clip-path="url(#clip9)"><path d="M74.4831 48.1035 39.9994 22.2414C38.7732 21.3219 37.0874 21.3219 35.8614 22.2414L1.37954 48.1035C-0.143908 49.2463-0.452874 51.4076 0.689886 52.9311 1.36736 53.8345 2.40276 54.3106 3.45127 54.3106 4.17104 54.3106 4.89725 54.0858 5.51748 53.6208L37.9306 29.3104 70.3451 53.6208C71.8691 54.7637 74.0302 54.4545 75.1727 52.9311 76.3155 51.4076 76.0065 49.2463 74.4831 48.1035Z" fill="#BFBFBF" transform="matrix(-0.401421 0.915893 1.10362 0.4837 237.602 198.982)"/></g></g></g><g clip-path="url(#clip10)"><g clip-path="url(#clip11)"><g clip-path="url(#clip12)"><path d="M74.4831 48.1035 39.9994 22.2414C38.7732 21.3219 37.0874 21.3219 35.8614 22.2414L1.37954 48.1035C-0.143908 49.2463-0.452874 51.4077 0.689886 52.9311 1.36736 53.8345 2.40276 54.3106 3.45127 54.3106 4.17104 54.3106 4.89725 54.0858 5.51748 53.6208L37.9306 29.3104 70.3452 53.6208C71.8691 54.7637 74.0302 54.4546 75.1727 52.9311 76.3155 51.4077 76.0065 49.2463 74.4831 48.1035Z" fill="#BFBFBF" transform="matrix(-0.323656 0.946175 1.14011 0.389995 232.074 210.288)"/></g></g></g><g clip-path="url(#clip13)"><g clip-path="url(#clip14)"><g clip-path="url(#clip15)"><path d="M74.4831 48.1035 39.9994 22.2414C38.7732 21.3219 37.0874 21.3219 35.8614 22.2414L1.37954 48.1035C-0.143908 49.2463-0.452874 51.4077 0.689886 52.9311 1.36736 53.8345 2.40276 54.3106 3.45127 54.3106 4.17104 54.3106 4.89725 54.0858 5.51748 53.6208L37.9306 29.3104 70.3452 53.6208C71.8691 54.7637 74.0302 54.4546 75.1727 52.9311 76.3155 51.4077 76.0065 49.2463 74.4831 48.1035Z" fill="#BFBFBF" transform="matrix(0.968145 -0.25039 -0.301712 -1.16658 240.276 284.83)"/></g></g></g></g></svg>